<svg width="400" height="400" viewBox="0 0 400 400" fill="none" xmlns="http://www.w3.org/2000/svg">
  <rect x="20" y="20" width="360" height="360" rx="88" fill="#1D4ED8"/>
  <rect x="20" y="20" width="360" height="360" rx="88" stroke="#93C5FD" stroke-width="2"/>

  <g stroke="#E0F2FE" stroke-width="12" stroke-linecap="round">
    <line x1="92" y1="82" x2="92" y2="320"/>
    <line x1="92" y1="128" x2="164" y2="128"/>
    <line x1="92" y1="196" x2="182" y2="196"/>
    <line x1="92" y1="264" x2="164" y2="264"/>
  </g>

  <g fill="#F8FAFC">
    <rect x="72" y="62" width="40" height="40" rx="11"/>
    <rect x="72" y="300" width="40" height="40" rx="11"/>

    <rect x="164" y="104" width="178" height="48" rx="13"/>
    <rect x="182" y="172" width="160" height="48" rx="13"/>
    <rect x="164" y="240" width="178" height="48" rx="13"/>
  </g>

  <g fill="#60A5FA">
    <rect x="182" y="120" width="58" height="8" rx="4"/>
    <rect x="248" y="120" width="76" height="8" rx="4"/>
    <rect x="200" y="188" width="62" height="8" rx="4"/>
    <rect x="268" y="188" width="56" height="8" rx="4"/>
    <rect x="182" y="256" width="58" height="8" rx="4"/>
    <rect x="248" y="256" width="76" height="8" rx="4"/>
  </g>
</svg>
