<svg width="400" height="400" viewBox="0 0 400 400" fill="none" xmlns="http://www.w3.org/2000/svg">
  <defs>
    <linearGradient id="bg" x1="30" y1="24" x2="370" y2="380" gradientUnits="userSpaceOnUse">
      <stop offset="0" stop-color="#0F766E"/>
      <stop offset="1" stop-color="#2563EB"/>
    </linearGradient>
    <linearGradient id="gloss" x1="90" y1="50" x2="340" y2="210" gradientUnits="userSpaceOnUse">
      <stop offset="0" stop-color="#FFFFFF" stop-opacity="0.28"/>
      <stop offset="1" stop-color="#FFFFFF" stop-opacity="0"/>
    </linearGradient>
  </defs>

  <rect x="20" y="20" width="360" height="360" rx="90" fill="url(#bg)"/>
  <rect x="20" y="20" width="360" height="360" rx="90" fill="url(#gloss)"/>

  <g stroke="#EAF2FF" stroke-width="14" stroke-linecap="round" stroke-linejoin="round">
    <line x1="92" y1="72" x2="92" y2="332"/>
    <line x1="92" y1="120" x2="306" y2="120"/>
    <line x1="92" y1="190" x2="322" y2="190"/>
    <line x1="92" y1="262" x2="306" y2="262"/>
  </g>

  <g fill="#FFFFFF">
    <circle cx="92" cy="58" r="17"/>
    <circle cx="92" cy="346" r="19"/>
    <circle cx="204" cy="120" r="15"/>
    <circle cx="306" cy="120" r="17"/>
    <circle cx="232" cy="190" r="15"/>
    <circle cx="322" cy="190" r="17"/>
    <circle cx="204" cy="262" r="15"/>
    <circle cx="306" cy="262" r="17"/>
  </g>
</svg>
