<svg width="400" height="400" viewBox="0 0 400 400" fill="none" xmlns="http://www.w3.org/2000/svg">
  <defs>
    <linearGradient id="bg" x1="26" y1="24" x2="372" y2="378" gradientUnits="userSpaceOnUse">
      <stop offset="0" stop-color="#0E7A68"/>
      <stop offset="1" stop-color="#1E4FD9"/>
    </linearGradient>
    <radialGradient id="glow" cx="0" cy="0" r="1" gradientUnits="userSpaceOnUse" gradientTransform="translate(102 88) rotate(35) scale(320 260)">
      <stop offset="0" stop-color="#FFFFFF" stop-opacity="0.28"/>
      <stop offset="1" stop-color="#FFFFFF" stop-opacity="0"/>
    </radialGradient>
    <filter id="cardShadow" x="130" y="82" width="242" height="244" filterUnits="userSpaceOnUse" color-interpolation-filters="sRGB">
      <feFlood flood-opacity="0" result="BackgroundImageFix"/>
      <feColorMatrix in="SourceAlpha" type="matrix" values="0 0 0 0 0 0 0 0 0 0 0 0 0 0 0 0 0 0 127 0" result="hardAlpha"/>
      <feOffset dy="6"/>
      <feGaussianBlur stdDeviation="6"/>
      <feComposite in2="hardAlpha" operator="out"/>
      <feColorMatrix type="matrix" values="0 0 0 0 0.0156863 0 0 0 0 0.105882 0 0 0 0 0.262745 0 0 0 0.25 0"/>
      <feBlend mode="normal" in2="BackgroundImageFix" result="effect1_dropShadow_1_1"/>
      <feBlend mode="normal" in="SourceGraphic" in2="effect1_dropShadow_1_1" result="shape"/>
    </filter>
  </defs>

  <rect x="20" y="20" width="360" height="360" rx="90" fill="url(#bg)"/>
  <rect x="20" y="20" width="360" height="360" rx="90" fill="url(#glow)"/>
  <rect x="20" y="20" width="360" height="360" rx="90" stroke="#FFFFFF" stroke-opacity="0.22" stroke-width="2"/>

  <g stroke="#E7F0FF" stroke-width="14" stroke-linecap="round" stroke-linejoin="round">
    <line x1="92" y1="78" x2="92" y2="318"/>
    <line x1="92" y1="126" x2="160" y2="126"/>
    <line x1="92" y1="194" x2="190" y2="194"/>
    <line x1="92" y1="262" x2="160" y2="262"/>
  </g>

  <g fill="#F8FBFF">
    <rect x="74" y="58" width="36" height="36" rx="11"/>
    <rect x="74" y="306" width="36" height="36" rx="11"/>
  </g>

  <g filter="url(#cardShadow)">
    <rect x="160" y="102" width="184" height="48" rx="14" fill="#FFFFFF"/>
    <rect x="190" y="170" width="154" height="48" rx="14" fill="#FFFFFF"/>
    <rect x="160" y="238" width="184" height="48" rx="14" fill="#FFFFFF"/>
  </g>

  <g fill="#B8CDFE">
    <rect x="178" y="118" width="64" height="9" rx="4.5"/>
    <rect x="250" y="118" width="76" height="9" rx="4.5"/>

    <rect x="206" y="186" width="56" height="9" rx="4.5"/>
    <rect x="268" y="186" width="58" height="9" rx="4.5"/>

    <rect x="178" y="254" width="64" height="9" rx="4.5"/>
    <rect x="250" y="254" width="76" height="9" rx="4.5"/>
  </g>

  <g fill="#3D7CF4">
    <rect x="178" y="130" width="42" height="7" rx="3.5"/>
    <rect x="206" y="198" width="36" height="7" rx="3.5"/>
    <rect x="178" y="266" width="42" height="7" rx="3.5"/>
  </g>
</svg>
